<svg xmlns="http://www.w3.org/2000/svg" viewBox="238 100 60 58">
  <path d="M243.087 121.673C241.061 121.706 240.245 124.287 241.846 125.496L250.047 131.704L253.347 121.445L243.087 121.673Z" fill="#FD3363"/>
  <path d="M270.86 104.421C270.207 102.526 267.495 102.526 266.841 104.421L263.41 114.354H274.324L270.86 104.421Z" fill="#FD3363"/>
  <path d="M294.32 121.869H261.45C261.091 121.869 260.764 122.098 260.666 122.457L257.921 131.018C257.758 131.541 258.15 132.096 258.705 132.096H275.467C276.317 132.096 276.676 133.142 276.023 133.665L268.867 139.415C268.704 139.546 268.508 139.611 268.312 139.611H255.765C255.405 139.611 255.079 139.84 254.981 140.199L254.425 141.931L250.929 153.432C250.341 155.36 252.53 156.961 254.196 155.785L268.867 145.558L283.538 155.785C285.204 156.928 287.36 155.36 286.805 153.432L281.61 136.311L295.594 125.725C297.228 124.483 296.346 121.869 294.32 121.869Z" fill="#FD3363"/>
</svg>
